<?xml version="1.0" encoding="utf-8"?>
<!-- Generator: Adobe Illustrator 26.3.1, SVG Export Plug-In . SVG Version: 6.00 Build 0)  -->
<svg version="1.1" id="Warstwa_1" xmlns="http://www.w3.org/2000/svg" xmlns:xlink="http://www.w3.org/1999/xlink" x="0px" y="0px"
	 viewBox="0 0 430 430" style="enable-background:new 0 0 430 430;" xml:space="preserve">
<style type="text/css">
	.Styl_x0020_grafiki_x0020_1268{opacity:0.5;fill:#3080e8;}
	.Styl_x0020_grafiki_x0020_153{opacity:0.5;fill:#3080e8;}
	.Styl_x0020_grafiki_x0020_1270{fill:#3080e8;}
	.st0{fill:#646E78;}
	.st1{fill:none;stroke:#646E78;stroke-width:7;stroke-linecap:round;stroke-linejoin:round;stroke-miterlimit:10;}
	.st2{fill:#EBE6EF;}
	.st3{fill:#121331;}
	.st4{fill:#3A3347;}
	.st5{fill:#92140C;}
	.st6{fill:#F24C00;}
	.st7{opacity:0.5;fill:#F24C00;}
	.st8{opacity:0.5;fill:#EBE6EF;}
	.st9{fill:#FFC738;}
	.st10{opacity:0.5;fill:#FFC738;}
	.st11{fill:#121331;stroke:#EBE6EF;stroke-width:7;stroke-linecap:round;stroke-linejoin:round;stroke-miterlimit:10;}
	.st12{fill:#4BB3FD;}
	.st13{opacity:0.5;fill:#4BB3FD;}
	.st14{fill:none;stroke:#121331;stroke-width:7;stroke-linecap:round;stroke-linejoin:round;stroke-miterlimit:10;}
	.st15{opacity:0.5;}
	.st16{fill:#121331;stroke:#4BB3FD;stroke-width:30;stroke-linecap:round;stroke-linejoin:round;stroke-miterlimit:10;}
	.st17{fill:none;stroke:#121331;stroke-width:12;stroke-linecap:round;stroke-linejoin:round;}
	.st18{fill:#3080e8;}
	.st19{fill:none;stroke:#08A88A;stroke-width:12;stroke-linecap:round;stroke-linejoin:round;stroke-miterlimit:10;}
	.st20{opacity:0.5;fill:#3080e8;}
	.st21{opacity:0.5;fill:#646E78;}
	.st22{fill:none;stroke:#FFC738;stroke-width:7;stroke-linecap:round;stroke-linejoin:round;stroke-miterlimit:10;}
	.st23{fill:#3A3347;stroke:#121331;stroke-width:7;stroke-linecap:round;stroke-linejoin:round;stroke-miterlimit:10;}
	.st24{opacity:0.5;fill:#3A3347;}
	.st25{fill:url(#SVGID_1_);}
	.st26{fill:url(#SVGID_00000026862389958411889600000002344601769960738718_);}
	.st27{fill:url(#SVGID_00000056386894411331785790000013440300541921867169_);}
	.st28{fill:#B26836;}
	.st29{opacity:0.5;fill:#92140C;}
	.st30{fill:#F28BA8;}
	.st31{fill:none;stroke:#EBE6EF;stroke-width:7;stroke-linecap:round;stroke-linejoin:round;stroke-miterlimit:10;}
	.st32{opacity:0.5;fill:#B26836;}
	.st33{fill:#08A789;}
	.st34{fill:#FFFFFF;}
	.st35{fill:none;stroke:#B26836;stroke-width:7;stroke-linecap:round;stroke-linejoin:round;stroke-miterlimit:10;}
	.st36{opacity:0.99;fill:#EBE6EF;}
	.st37{fill:#F9C9C0;}
	.st38{opacity:0.5;fill:#F9C9C0;}
	.st39{opacity:0.5;fill:#F28BA8;}
	.st40{fill:none;stroke:#08A284;stroke-width:12;stroke-linecap:round;stroke-linejoin:round;stroke-miterlimit:10;}
	.st41{fill:none;stroke:#92140C;stroke-width:7;stroke-linecap:round;stroke-linejoin:round;stroke-miterlimit:10;}
	.st42{fill:none;stroke:#08A688;stroke-width:12;stroke-linecap:round;stroke-linejoin:round;stroke-miterlimit:10;}
	.st43{opacity:0.96;fill:#EBE6EF;}
	.st44{fill:none;stroke:#121331;stroke-width:12;stroke-linecap:round;stroke-linejoin:round;stroke-miterlimit:10;}
	.st45{fill:#08A88A;}
	.st46{fill:none;stroke:#3080e8;stroke-width:7;stroke-linecap:round;stroke-linejoin:round;stroke-miterlimit:10;}
	.st47{fill:#121331;stroke:#FFC738;stroke-width:7;stroke-linecap:round;stroke-linejoin:round;stroke-miterlimit:10;}
	.st48{fill:#121331;stroke:#92140C;stroke-width:7;stroke-linejoin:round;stroke-miterlimit:10;}
	.st49{fill:none;stroke:#92140C;stroke-width:7;stroke-linejoin:round;stroke-miterlimit:10;}
	.st50{opacity:0.75;fill:#EBE6EF;}
	.st51{fill:#121331;stroke:#646E78;stroke-width:12;stroke-linecap:round;stroke-linejoin:round;stroke-miterlimit:10;}
	.st52{fill:#E94E12;}
	.st53{fill:#E84F16;}
	.st54{opacity:0.5;fill:#FFFFFF;}
</style>
<path class="st2" d="M130.53,266.17c-50.14,0-83.01-34.6-97.06-66.99c-13.04-30.05-11.46-60.16,4.02-76.7
	c6.33-6.76,14.21-10.22,23.42-10.27c0.06,0,0.13,0,0.2,0c28.52,0,60.27,32.86,61.61,34.27c1.34,1.4,1.29,3.61-0.11,4.95
	c-1.4,1.34-3.61,1.29-4.95-0.11c-0.31-0.32-31.15-32.26-56.72-32.1c-7.31,0.04-13.3,2.67-18.33,8.05
	c-13.57,14.5-14.63,41.64-2.71,69.13c13.16,30.35,43.89,62.78,90.64,62.78c1.93,0,3.5,1.57,3.5,3.5S132.47,266.17,130.53,266.17z"/>
<path class="st2" d="M299.47,266.17c-1.93,0-3.5-1.57-3.5-3.5s1.57-3.5,3.5-3.5c46.75,0,77.47-32.43,90.64-62.78
	c11.93-27.49,10.86-54.63-2.71-69.13c-5.03-5.38-11.03-8.01-18.33-8.05c-0.06,0-0.12,0-0.17,0c-25.52,0-56.24,31.78-56.55,32.1
	c-1.34,1.4-3.55,1.45-4.95,0.11c-1.4-1.34-1.45-3.55-0.11-4.95c1.34-1.4,33.09-34.27,61.61-34.27c0.07,0,0.13,0,0.2,0
	c9.21,0.05,17.09,3.5,23.42,10.27c15.48,16.54,17.06,46.65,4.02,76.7C382.48,231.56,349.6,266.17,299.47,266.17z"/>
<path class="Styl_x0020_grafiki_x0020_1270" d="M217.9,314.29h-6c-50.65,0-91.71-41.06-91.71-91.71V148.9l84.82-21.52
	c6.49-1.65,13.29-1.65,19.78,0l84.82,21.52v73.68C309.61,273.23,268.55,314.29,217.9,314.29z"/>
<path class="Styl_x0020_grafiki_x0020_153" d="M140.61,214.28v-70.56l-20.43,5.18v73.68c0,50.65,41.06,91.71,91.71,91.71h3
	c3.5,0,6.95-0.2,10.34-0.56C177.68,308.41,140.61,265.92,140.61,214.28z"/>
<path class="Styl_x0020_grafiki_x0020_1268" d="M120.19,203.52v16.06c0,7.72,0.93,15.23,2.68,22.42c0.37,0.86,0.61,1.73,0.68,2.62
	c83.84,36.95,166.04,6.84,182.72-0.05c0.05-0.61,0.22-1.21,0.48-1.8c1.87-7.42,2.86-15.19,2.86-23.19v-16.05
	c-0.02-0.34-0.03-0.67,0-1c-28.03-7.11-56.05-14.22-84.08-21.33c-6.97-1.77-14.28-1.77-21.26,0l-84.08,21.33
	C120.21,202.86,120.21,203.19,120.19,203.52z"/>
<path class="st3" d="M309.6,207.03c-1.24,0-2.34-0.65-2.96-1.64l-81.98-20.8c-6.39-1.62-13.15-1.62-19.53,0l-81.98,20.8
	c-0.66,1.04-1.85,1.71-3.17,1.62c-1.93-0.12-3.4-1.78-3.28-3.71c0.01-0.21,0.01-0.37,0-0.5c-0.13-1.7,0.98-3.25,2.63-3.67
	l84.08-21.33c7.52-1.91,15.46-1.91,22.98,0l84.08,21.33c1.65,0.42,2.76,1.97,2.63,3.67c-0.01,0.13-0.01,0.3,0,0.52
	c0.12,1.93-1.36,3.59-3.29,3.7C309.74,207.03,309.67,207.03,309.6,207.03z"/>
<path class="st3" d="M211.53,266.1c-27.49,0-58.36-4.6-89.4-18.28c-1.18-0.52-1.98-1.64-2.08-2.92c-0.04-0.47-0.17-0.97-0.41-1.53
	c-0.76-1.78,0.07-3.83,1.85-4.59c1.78-0.76,3.83,0.07,4.59,1.85c0.22,0.51,0.4,1.01,0.54,1.52c79.61,34.24,157.8,7.37,176.66-0.15
	c0.08-0.22,0.17-0.44,0.27-0.66c0.79-1.76,2.86-2.56,4.62-1.77c1.76,0.79,2.56,2.86,1.77,4.62c-0.11,0.24-0.17,0.46-0.19,0.65
	c-0.1,1.31-0.94,2.46-2.15,2.96C297.42,252,259.65,266.1,211.53,266.1z"/>
<path class="st3" d="M214.9,317.79c-54.15,0-98.21-44.06-98.21-98.21v-68.35c0-2.98,2.02-5.57,4.9-6.3l81.82-20.76
	c7.52-1.91,15.46-1.91,22.98,0l81.82,20.76c2.89,0.73,4.9,3.32,4.9,6.3v68.35C313.11,273.73,269.05,317.79,214.9,317.79z
	 M123.69,151.62v67.96c0,50.29,40.92,91.21,91.21,91.21s91.21-40.92,91.21-91.21v-67.96l-81.44-20.66c-6.39-1.62-13.14-1.62-19.53,0
	L123.69,151.62z"/>
</svg>
